<?xml version="1.0"?>
<svg width="32" height="32" xmlns="http://www.w3.org/2000/svg" xmlns:svg="http://www.w3.org/2000/svg">
 <g class="layer">
  <title>Layer 1</title>
  <path d="m15.24,0.01c-2.57,0.03 -8.09,0.45 -11.18,3.28c-2.3,2.28 -3.1,5.64 -3.19,9.8c-0.08,4.15 -0.17,11.93 7.33,14.05l0,3.23c0,0 -0.05,1.3 0.81,1.56c1.05,0.33 1.65,-0.66 2.65,-1.73l1.86,-2.11c5.14,0.43 9.07,-0.55 9.53,-0.7c1.04,-0.33 6.91,-1.08 7.87,-8.87c0.98,-8.04 -0.48,-13.11 -3.12,-15.4l-0.02,0c-0.8,-0.74 -4,-3.07 -11.16,-3.1c0,0 -0.53,-0.03 -1.38,-0.02l0,0.01zm0.09,2.26c0.73,-0.01 1.17,0.02 1.17,0.02c6.06,0.02 8.95,1.84 9.63,2.45c2.22,1.91 3.37,6.48 2.53,13.19c-0.8,6.51 -5.56,6.93 -6.44,7.21c-0.37,0.12 -3.84,0.97 -8.2,0.69c0,0 -3.25,3.92 -4.27,4.93c-0.16,0.18 -0.35,0.23 -0.47,0.2c-0.17,-0.04 -0.22,-0.25 -0.21,-0.54l0.03,-5.36c-6.36,-1.76 -5.99,-8.4 -5.92,-11.87c0.08,-3.47 0.73,-6.31 2.67,-8.23c2.6,-2.36 7.29,-2.68 9.47,-2.69l0.01,0zm0.48,3.46c-0.22,0 -0.4,0.18 -0.4,0.4c0,0.22 0.18,0.4 0.4,0.4c2,-0.03 3.93,0.72 5.37,2.12c1.45,1.41 2.16,3.31 2.19,5.79c0,0.22 0.18,0.4 0.4,0.4l0,-0.02c0.22,0 0.4,-0.18 0.4,-0.39c0.1,-2.36 -0.78,-4.66 -2.42,-6.35c-1.58,-1.55 -3.58,-2.35 -5.94,-2.35zm-5.28,0.92c-0.28,-0.04 -0.57,0.02 -0.81,0.16l-0.02,0c-0.55,0.32 -1.05,0.72 -1.53,1.26c-0.37,0.42 -0.56,0.85 -0.62,1.26c-0.03,0.24 -0.01,0.49 0.07,0.72l0.02,0.02c0.41,1.21 0.95,2.37 1.61,3.46c0.84,1.54 1.88,2.96 3.09,4.23l0.04,0.05l0.05,0.04l0.04,0.05l0.04,0.03c1.28,1.22 2.7,2.26 4.24,3.11c1.76,0.96 2.83,1.41 3.47,1.6l0,0.01c0.19,0.06 0.36,0.08 0.53,0.08c0.55,-0.04 1.07,-0.26 1.47,-0.63c0.52,-0.47 0.93,-0.98 1.24,-1.53l0,-0.01c0.31,-0.58 0.2,-1.12 -0.24,-1.49c-0.88,-0.78 -1.85,-1.47 -2.86,-2.06c-0.68,-0.37 -1.38,-0.15 -1.66,0.23l-0.6,0.75c-0.3,0.38 -0.86,0.33 -0.86,0.33l-0.02,0.01c-4.16,-1.07 -5.27,-5.28 -5.27,-5.28s-0.05,-0.57 0.33,-0.86l0.75,-0.61c0.36,-0.29 0.61,-0.98 0.23,-1.66c-0.59,-1.03 -1.28,-1.98 -2.05,-2.87c-0.17,-0.21 -0.41,-0.35 -0.68,-0.4zm5.97,1.19c-0.53,0 -0.53,0.8 0,0.8c1.34,0.02 2.61,0.57 3.53,1.53c0.85,0.93 1.28,2.17 1.2,3.43c0.01,0.22 0.18,0.4 0.4,0.4l0.02,0.02c0.22,0 0.4,-0.19 0.4,-0.4c0.04,-1.59 -0.46,-2.93 -1.43,-3.99c-0.97,-1.07 -2.33,-1.67 -4.07,-1.79c-0.02,0 -0.03,0 -0.05,0zm0.65,2.15c-0.54,-0.01 -0.56,0.81 -0.02,0.82c1.32,0.07 1.96,0.74 2.04,2.11c0.01,0.22 0.18,0.39 0.4,0.39l0.01,0c0.23,-0.01 0.4,-0.21 0.39,-0.43c-0.1,-1.79 -1.07,-2.79 -2.8,-2.88c0,0 -0.01,0 -0.01,0l-0.01,-0.01z" fill="#665cac" id="svg_1"/>
 </g>
</svg>