<?xml version="1.0" encoding="UTF-8" standalone="no"?>
<svg
   xmlns:dc="http://purl.org/dc/elements/1.1/"
   xmlns:cc="http://creativecommons.org/ns#"
   xmlns:rdf="http://www.w3.org/1999/02/22-rdf-syntax-ns#"
   xmlns:svg="http://www.w3.org/2000/svg"
   xmlns="http://www.w3.org/2000/svg"
   width="140mm"
   height="29mm"
   viewBox="0 0 140 29"
   version="1.1"
   id="svg8">
  <defs
     id="defs2">
    <filter
       style="color-interpolation-filters:sRGB"
       id="filter842"
       x="-2.6666178e-06"
       width="1.0000052"
       y="-2.4003963e-05"
       height="1.000048">
      <feGaussianBlur
         stdDeviation="0.00014322364"
         id="feGaussianBlur844" />
    </filter>
  </defs>
  <metadata
     id="metadata5">
    <rdf:RDF>
      <cc:Work
         rdf:about="">
        <dc:format>image/svg+xml</dc:format>
        <dc:type
           rdf:resource="http://purl.org/dc/dcmitype/StillImage" />
        <dc:title></dc:title>
      </cc:Work>
    </rdf:RDF>
  </metadata>
  <g
     id="layer2">
    <path
       id="rect837"
       style="opacity:0.994;fill:#ff0000;fill-opacity:1;stroke-width:0.242277"
       d="m 60.30365,3.8210321 h 54.0505 a 2.4171821,2.8827627 0 0 1 2.0919,4.3271314 l -6.25757,12.8903895 a 7.2500198,8.6464675 0 0 1 -6.29304,4.314244 L 50.795701,25.189583 A 2.5280928,3.0150362 0 0 1 48.569363,20.760611 L 54.145053,8.237117 A 6.9729154,8.3159892 0 0 1 60.30365,3.8210321 Z" />
  </g>
  <g
     id="layer1"
     style="filter:url(#filter842)">
    <g
       aria-label="ROOM"
       id="text835"
       style="font-style:normal;font-variant:normal;font-weight:normal;font-stretch:normal;font-size:18px;line-height:1.25;font-family:Montserrat;-inkscape-font-specification:'Montserrat, @wght=900';font-variant-ligatures:normal;font-variant-caps:normal;font-variant-numeric:normal;font-variant-east-asian:normal;font-variation-settings:'wght' 900;opacity:1;fill:#ffffff;fill-opacity:1;stroke:none;stroke-width:0.264583"
       transform="matrix(0.83849501,0,0,1,-0.28371746,-71.741765)">
      <path
         d="m 69.524077,92.628693 v -12.6 h 6.066 q 1.764,0 3.042,0.576 1.296,0.576 1.998,1.656 0.702,1.062 0.702,2.52 0,1.458 -0.702,2.52 -0.702,1.044 -1.998,1.602 -1.278,0.558 -3.042,0.558 h -3.708 l 1.89,-1.746 v 4.914 z m 7.542,0 -3.096,-4.59 h 4.5 l 3.132,4.59 z m -3.294,-4.446 -1.89,-1.926 h 3.438 q 0.882,0 1.296,-0.396 0.432,-0.396 0.432,-1.08 0,-0.684 -0.432,-1.08 -0.414,-0.396 -1.296,-0.396 h -3.438 l 1.89,-1.926 z"
         style="font-style:normal;font-variant:normal;font-weight:normal;font-stretch:normal;font-size:18px;font-family:Montserrat;-inkscape-font-specification:'Montserrat, @wght=900';font-variant-ligatures:normal;font-variant-caps:normal;font-variant-numeric:normal;font-variant-east-asian:normal;font-variation-settings:'wght' 900;opacity:0.995;fill:#ffffff;fill-opacity:1;stroke-width:0.264583"
         id="path861" />
      <path
         d="m 89.540058,92.916693 q -1.53,0 -2.844,-0.486 -1.296,-0.486 -2.25,-1.368 -0.954,-0.9 -1.494,-2.106 -0.522,-1.206 -0.522,-2.628 0,-1.44 0.522,-2.628 0.54,-1.206 1.494,-2.088 0.954,-0.9 2.25,-1.386 1.314,-0.486 2.844,-0.486 1.548,0 2.844,0.486 1.296,0.486 2.25,1.386 0.954,0.882 1.476,2.088 0.54,1.188 0.54,2.628 0,1.422 -0.54,2.628 -0.522,1.206 -1.476,2.106 -0.954,0.882 -2.25,1.368 -1.296,0.486 -2.844,0.486 z m 0,-3.438 q 0.594,0 1.098,-0.216 0.522,-0.216 0.9,-0.612 0.396,-0.414 0.612,-0.99 0.216,-0.594 0.216,-1.332 0,-0.738 -0.216,-1.314 -0.216,-0.594 -0.612,-0.99 -0.378,-0.414 -0.9,-0.63 -0.504,-0.216 -1.098,-0.216 -0.594,0 -1.116,0.216 -0.504,0.216 -0.9,0.63 -0.378,0.396 -0.594,0.99 -0.216,0.576 -0.216,1.314 0,0.738 0.216,1.332 0.216,0.576 0.594,0.99 0.396,0.396 0.9,0.612 0.522,0.216 1.116,0.216 z"
         style="font-style:normal;font-variant:normal;font-weight:normal;font-stretch:normal;font-size:18px;font-family:Montserrat;-inkscape-font-specification:'Montserrat, @wght=900';font-variant-ligatures:normal;font-variant-caps:normal;font-variant-numeric:normal;font-variant-east-asian:normal;font-variation-settings:'wght' 900;opacity:0.995;fill:#ffffff;fill-opacity:1;stroke-width:0.264583"
         id="path863" />
      <path
         d="m 104.80405,92.916693 q -1.53,0 -2.844,-0.486 -1.296,-0.486 -2.25,-1.368 -0.954,-0.9 -1.494,-2.106 -0.522,-1.206 -0.522,-2.628 0,-1.44 0.522,-2.628 0.54,-1.206 1.494,-2.088 0.954,-0.9 2.25,-1.386 1.314,-0.486 2.844,-0.486 1.548,0 2.844,0.486 1.296,0.486 2.25,1.386 0.954,0.882 1.476,2.088 0.54,1.188 0.54,2.628 0,1.422 -0.54,2.628 -0.522,1.206 -1.476,2.106 -0.954,0.882 -2.25,1.368 -1.296,0.486 -2.844,0.486 z m 0,-3.438 q 0.594,0 1.098,-0.216 0.522,-0.216 0.9,-0.612 0.396,-0.414 0.612,-0.99 0.216,-0.594 0.216,-1.332 0,-0.738 -0.216,-1.314 -0.216,-0.594 -0.612,-0.99 -0.378,-0.414 -0.9,-0.63 -0.504,-0.216 -1.098,-0.216 -0.594,0 -1.116,0.216 -0.504,0.216 -0.9,0.63 -0.378,0.396 -0.594,0.99 -0.216,0.576 -0.216,1.314 0,0.738 0.216,1.332 0.216,0.576 0.594,0.99 0.396,0.396 0.9,0.612 0.522,0.216 1.116,0.216 z"
         style="font-style:normal;font-variant:normal;font-weight:normal;font-stretch:normal;font-size:18px;font-family:Montserrat;-inkscape-font-specification:'Montserrat, @wght=900';font-variant-ligatures:normal;font-variant-caps:normal;font-variant-numeric:normal;font-variant-east-asian:normal;font-variation-settings:'wght' 900;opacity:0.995;fill:#ffffff;fill-opacity:1;stroke-width:0.264583"
         id="path865" />
      <path
         d="m 113.46204,92.628693 v -12.6 h 3.492 l 5.04,8.226 h -1.836 l 4.896,-8.226 h 3.492 l 0.036,12.6 h -3.87 l -0.036,-6.768 h 0.612 l -3.348,5.634 h -1.872 l -3.492,-5.634 h 0.756 v 6.768 z"
         style="font-style:normal;font-variant:normal;font-weight:normal;font-stretch:normal;font-size:18px;font-family:Montserrat;-inkscape-font-specification:'Montserrat, @wght=900';font-variant-ligatures:normal;font-variant-caps:normal;font-variant-numeric:normal;font-variant-east-asian:normal;font-variation-settings:'wght' 900;opacity:0.995;fill:#ffffff;fill-opacity:1;stroke-width:0.264583"
         id="path867" />
    </g>
    <g
       aria-label="AUTO"
       id="text835-3"
       style="font-style:normal;font-variant:normal;font-weight:normal;font-stretch:normal;font-size:18px;line-height:1.25;font-family:Montserrat;-inkscape-font-specification:'Montserrat, @wght=900';font-variant-ligatures:normal;font-variant-caps:normal;font-variant-numeric:normal;font-variant-east-asian:normal;font-variation-settings:'wght' 900;opacity:1;fill:#ff0000;fill-opacity:1;stroke:none;stroke-width:0.264583"
       transform="matrix(0.83849501,0,0,1,-0.28371746,-71.741765)">
      <path
         d="m 3.5472627,92.628693 5.508,-12.6 h 4.1760003 l 5.508,12.6 h -4.392 l -4.068,-10.584 h 1.656 l -4.0680003,10.584 z m 3.276,-2.196 1.08,-3.06 h 5.7960003 l 1.08,3.06 z"
         style="font-style:normal;font-variant:normal;font-weight:normal;font-stretch:normal;font-size:18px;font-family:Montserrat;-inkscape-font-specification:'Montserrat, @wght=900';font-variant-ligatures:normal;font-variant-caps:normal;font-variant-numeric:normal;font-variant-east-asian:normal;font-variation-settings:'wght' 900;opacity:0.995;fill:#ff0000;fill-opacity:1;stroke-width:0.264583"
         id="path870" />
      <path
         d="m 25.183235,92.916693 q -2.898,0 -4.518,-1.566 -1.62,-1.566 -1.62,-4.392 v -6.93 h 4.248 v 6.804 q 0,1.44 0.522,2.052 0.522,0.594 1.404,0.594 0.9,0 1.404,-0.594 0.522,-0.612 0.522,-2.052 v -6.804 h 4.176 v 6.93 q 0,2.826 -1.62,4.392 -1.62,1.566 -4.518,1.566 z"
         style="font-style:normal;font-variant:normal;font-weight:normal;font-stretch:normal;font-size:18px;font-family:Montserrat;-inkscape-font-specification:'Montserrat, @wght=900';font-variant-ligatures:normal;font-variant-caps:normal;font-variant-numeric:normal;font-variant-east-asian:normal;font-variation-settings:'wght' 900;opacity:0.995;fill:#ff0000;fill-opacity:1;stroke-width:0.264583"
         id="path872" />
      <path
         d="m 35.821169,92.628693 v -9.306 h -3.69 v -3.294 h 11.628 v 3.294 h -3.69 v 9.306 z"
         style="font-style:normal;font-variant:normal;font-weight:normal;font-stretch:normal;font-size:18px;font-family:Montserrat;-inkscape-font-specification:'Montserrat, @wght=900';font-variant-ligatures:normal;font-variant-caps:normal;font-variant-numeric:normal;font-variant-east-asian:normal;font-variation-settings:'wght' 900;opacity:0.995;fill:#ff0000;fill-opacity:1;stroke-width:0.264583"
         id="path874" />
      <path
         d="m 51.283153,92.916693 q -1.53,0 -2.844,-0.486 -1.296,-0.486 -2.25,-1.368 -0.954,-0.9 -1.494,-2.106 -0.522,-1.206 -0.522,-2.628 0,-1.44 0.522,-2.628 0.54,-1.206 1.494,-2.088 0.954,-0.9 2.25,-1.386 1.314,-0.486 2.844,-0.486 1.548,0 2.844,0.486 1.296,0.486 2.25,1.386 0.954,0.882 1.476,2.088 0.54,1.188 0.54,2.628 0,1.422 -0.54,2.628 -0.522,1.206 -1.476,2.106 -0.954,0.882 -2.25,1.368 -1.296,0.486 -2.844,0.486 z m 0,-3.438 q 0.594,0 1.098,-0.216 0.522,-0.216 0.9,-0.612 0.396,-0.414 0.612,-0.99 0.216,-0.594 0.216,-1.332 0,-0.738 -0.216,-1.314 -0.216,-0.594 -0.612,-0.99 -0.378,-0.414 -0.9,-0.63 -0.504,-0.216 -1.098,-0.216 -0.594,0 -1.116,0.216 -0.504,0.216 -0.9,0.63 -0.378,0.396 -0.594,0.99 -0.216,0.576 -0.216,1.314 0,0.738 0.216,1.332 0.216,0.576 0.594,0.99 0.396,0.396 0.9,0.612 0.522,0.216 1.116,0.216 z"
         style="font-style:normal;font-variant:normal;font-weight:normal;font-stretch:normal;font-size:18px;font-family:Montserrat;-inkscape-font-specification:'Montserrat, @wght=900';font-variant-ligatures:normal;font-variant-caps:normal;font-variant-numeric:normal;font-variant-east-asian:normal;font-variation-settings:'wght' 900;opacity:0.995;fill:#ff0000;fill-opacity:1;stroke-width:0.264583"
         id="path876" />
    </g>
  </g>
</svg>
